<svg xmlns="http://www.w3.org/2000/svg" xmlns:xlink="http://www.w3.org/1999/xlink" width="88.592" height="21.2"><path fill="black" stroke="black" d="M0.16 5.89L0.16 5.42L4.22 5.42L4.22 5.89Q3.92 6.02 3.62 6.11Q3.31 6.21 3.01 6.29L3.01 6.29L3.01 12.83Q3.01 13.68 3.19 14.25Q3.38 14.82 3.73 15.16Q4.08 15.50 4.60 15.66Q5.12 15.81 5.78 15.81L5.78 15.81Q7.04 15.81 7.74 15.11Q8.45 14.42 8.45 12.82L8.45 12.82L8.45 6.43Q8.08 6.30 7.76 6.17Q7.44 6.03 7.18 5.89L7.18 5.89L7.18 5.42L10.59 5.42L10.59 5.89Q10.29 6.06 9.98 6.21Q9.66 6.35 9.34 6.43L9.34 6.43L9.34 12.85Q9.34 13.87 9.07 14.61Q8.80 15.34 8.31 15.82Q7.82 16.30 7.13 16.54Q6.43 16.77 5.58 16.77L5.58 16.77Q3.58 16.77 2.53 15.86Q1.47 14.96 1.47 13.09L1.47 13.09L1.47 6.29Q0.82 6.19 0.16 5.89L0.16 5.89ZM18.54 5.89L18.54 5.42L22 5.42L22 5.89Q21.33 6.34 20.69 6.53L20.69 6.53L20.69 16.82L19.78 16.82L13.97 8.00L13.34 6.75L13.30 6.75L13.44 8.00L13.44 15.60Q14.10 15.78 14.67 16.16L14.67 16.16L14.67 16.62L11.22 16.62L11.22 16.16Q11.50 15.98 11.83 15.85Q12.16 15.71 12.53 15.60L12.53 15.60L12.53 6.43Q12.21 6.30 11.90 6.16Q11.58 6.02 11.31 5.87L11.31 5.87L11.31 5.42L14.02 5.42L19.06 13.02L19.79 14.40L19.86 14.40L19.78 13.02L19.78 6.53Q19.44 6.38 19.13 6.22Q18.82 6.06 18.54 5.89L18.54 5.89ZM27.33 16.16L27.33 16.62L23.23 16.62L23.23 16.16Q23.86 15.87 24.51 15.78L24.51 15.78L24.51 6.29Q24.19 6.22 23.87 6.12Q23.55 6.02 23.23 5.89L23.23 5.89L23.23 5.42L27.33 5.42L27.33 5.89Q27.04 6.02 26.70 6.12Q26.37 6.22 26.05 6.29L26.05 6.29L26.05 15.78Q26.38 15.84 26.72 15.94Q27.06 16.03 27.33 16.16L27.33 16.16ZM28.94 11.02L28.94 11.02Q28.94 9.78 29.29 8.71Q29.63 7.65 30.28 6.87Q30.93 6.10 31.87 5.66Q32.82 5.23 34.02 5.23L34.02 5.23Q35.22 5.23 36.16 5.66Q37.10 6.10 37.75 6.87Q38.40 7.65 38.74 8.71Q39.09 9.78 39.09 11.02L39.09 11.02Q39.09 12.27 38.74 13.34Q38.40 14.40 37.75 15.18Q37.10 15.95 36.16 16.38Q35.22 16.82 34.02 16.82L34.02 16.82Q32.82 16.82 31.87 16.38Q30.93 15.95 30.28 15.18Q29.63 14.40 29.29 13.34Q28.94 12.27 28.94 11.02ZM30.66 11.02L30.66 11.02Q30.66 12.05 30.87 12.95Q31.09 13.86 31.52 14.53Q31.95 15.20 32.61 15.59Q33.26 15.98 34.16 15.98L34.16 15.98Q34.98 15.98 35.58 15.59Q36.19 15.20 36.58 14.53Q36.98 13.86 37.18 12.95Q37.38 12.05 37.38 11.02L37.38 11.02Q37.38 10.00 37.17 9.10Q36.96 8.19 36.53 7.52Q36.10 6.85 35.44 6.46Q34.78 6.06 33.89 6.06L33.89 6.06Q33.01 6.06 32.39 6.46Q31.78 6.85 31.39 7.52Q31.01 8.19 30.83 9.10Q30.66 10.00 30.66 11.02ZM43.25 11.66L43.25 15.78Q43.62 15.86 43.95 15.94Q44.29 16.03 44.61 16.16L44.61 16.16L44.61 16.62L40.40 16.62L40.40 16.16Q40.75 16.00 41.07 15.92Q41.39 15.84 41.71 15.78L41.71 15.78L41.71 6.29Q41.30 6.21 40.98 6.10Q40.66 6.00 40.40 5.89L40.40 5.89L40.40 5.42L41.81 5.42Q42.45 5.42 43.21 5.36Q43.97 5.30 44.69 5.30L44.69 5.30Q45.47 5.30 46.15 5.47Q46.83 5.65 47.33 6.03Q47.82 6.42 48.10 7.01Q48.38 7.60 48.38 8.43L48.38 8.43Q48.38 9.60 47.77 10.37Q47.15 11.14 46.10 11.47L46.10 11.47Q46.78 12.56 47.54 13.63Q48.29 14.70 49.10 15.76L49.10 15.76L49.97 16.22L49.97 16.62L48.03 16.62L47.42 16.18Q46.98 15.62 46.61 15.08Q46.24 14.54 45.92 13.99Q45.60 13.44 45.32 12.87Q45.04 12.30 44.75 11.66L44.75 11.66L43.25 11.66ZM44.34 6.13L44.34 6.13Q43.95 6.13 43.70 6.14Q43.46 6.16 43.25 6.21L43.25 6.21L43.25 10.99L44.40 10.99Q45.50 10.99 46.15 10.29Q46.80 9.58 46.80 8.43L46.80 8.43Q46.80 7.25 46.11 6.69Q45.42 6.13 44.34 6.13ZM53.68 16.16L53.68 16.62L50.13 16.62L50.13 16.16Q50.70 15.90 51.28 15.78L51.28 15.78L55.33 5.23L55.79 5.23L59.84 15.78Q60.16 15.84 60.47 15.92Q60.78 16.00 61.06 16.16L61.06 16.16L61.06 16.62L56.96 16.62L56.96 16.16Q57.28 16.03 57.62 15.94Q57.95 15.84 58.27 15.78L58.27 15.78L57.18 12.85L53.36 12.85L52.30 15.78Q52.98 15.87 53.68 16.16L53.68 16.16ZM54.91 8.66L53.68 12.02L56.91 12.02L55.65 8.62L55.34 7.25L55.31 7.25L54.91 8.66ZM68.19 15.70L68.94 13.71L69.36 13.71Q69.44 14.16 69.50 14.84Q69.57 15.52 69.54 16.16L69.54 16.16Q69.30 16.35 68.96 16.47Q68.62 16.59 68.25 16.67Q67.87 16.75 67.48 16.78Q67.09 16.82 66.74 16.82L66.74 16.82Q65.39 16.82 64.34 16.47Q63.28 16.13 62.55 15.42Q61.82 14.72 61.43 13.62Q61.04 12.53 61.04 11.02L61.04 11.02Q61.04 9.46 61.47 8.36Q61.90 7.26 62.64 6.57Q63.38 5.87 64.35 5.55Q65.33 5.23 66.40 5.23L66.40 5.23Q67.46 5.23 68.18 5.37Q68.90 5.50 69.44 5.78L69.44 5.78Q69.44 6.03 69.42 6.38Q69.41 6.72 69.38 7.10Q69.34 7.49 69.30 7.86Q69.25 8.22 69.20 8.53L69.20 8.53L68.78 8.53L67.95 6.22Q67.78 6.13 67.37 6.10Q66.96 6.06 66.56 6.06L66.56 6.06Q65.76 6.06 65.05 6.36Q64.34 6.66 63.80 7.27Q63.26 7.89 62.94 8.82Q62.62 9.76 62.62 11.02L62.62 11.02Q62.62 12.16 62.91 13.08Q63.20 14.00 63.74 14.65Q64.29 15.30 65.07 15.64Q65.86 15.98 66.85 15.98L66.85 15.98Q67.38 15.98 67.73 15.90Q68.08 15.82 68.19 15.70L68.19 15.70ZM70.96 5.89L70.96 5.42L75.34 5.42L75.34 5.89Q74.96 6.03 74.58 6.14Q74.19 6.24 73.81 6.29L73.81 6.29L73.81 15.79L77.49 15.79L78.43 13.22L78.85 13.22Q78.90 13.55 78.94 13.99Q78.98 14.43 79 14.90Q79.02 15.38 79.02 15.82Q79.02 16.27 79.01 16.62L79.01 16.62L70.96 16.62L70.96 16.16Q71.34 15.98 71.66 15.90Q71.98 15.82 72.27 15.78L72.27 15.78L72.27 6.29Q71.90 6.22 71.57 6.12Q71.23 6.02 70.96 5.89L70.96 5.89ZM79.74 5.42L87.33 5.42Q87.31 6.06 87.27 6.71Q87.23 7.36 87.15 8.02L87.15 8.02L86.74 8.02L86.08 6.26L82.59 6.26L82.59 10.50L85.20 10.50L85.82 9.31L86.22 9.31Q86.32 10.90 86.22 12.54L86.22 12.54L85.82 12.54L85.20 11.33L82.59 11.33L82.59 15.79L86.27 15.79L87.06 13.87L87.46 13.87Q87.57 14.54 87.62 15.23Q87.66 15.92 87.63 16.62L87.63 16.62L79.74 16.62L79.74 16.16Q80.30 15.90 81.06 15.78L81.06 15.78L81.06 6.29Q80.74 6.22 80.40 6.12Q80.06 6.02 79.74 5.89L79.74 5.89L79.74 5.42Z"/></svg>
